<mxfile host="app.diagrams.net" agent="Mozilla/5.0 (Windows NT 10.0; Win64; x64) AppleWebKit/537.36 (KHTML, like Gecko) Chrome/134.0.0.0 Safari/537.36 Edg/134.0.0.0" version="26.1.1">
  <diagram name="第 1 页" id="neYFr3VHxDB0ribPpKNd">
    <mxGraphModel dx="1782" dy="837" grid="1" gridSize="10" guides="1" tooltips="1" connect="1" arrows="1" fold="1" page="1" pageScale="1" pageWidth="827" pageHeight="1169" math="0" shadow="0">
      <root>
        <mxCell id="0" />
        <mxCell id="1" parent="0" />
        <mxCell id="zcgG9CMCVVHrSvOoqnRu-1" value="Microcontrollor" style="swimlane;fontStyle=0;childLayout=stackLayout;horizontal=1;startSize=26;horizontalStack=0;resizeParent=1;resizeParentMax=0;resizeLast=0;collapsible=1;marginBottom=0;align=center;fontSize=16;fillColor=#fff2cc;strokeColor=#d6b656;" vertex="1" parent="1">
          <mxGeometry x="298.91" y="365" width="220" height="180" as="geometry" />
        </mxCell>
        <mxCell id="zcgG9CMCVVHrSvOoqnRu-2" value="&lt;font style=&quot;font-size: 14px;&quot;&gt;Microcontroller SAMD21G ---1&lt;/font&gt;" style="text;strokeColor=none;fillColor=none;spacingLeft=4;spacingRight=4;overflow=hidden;rotatable=0;points=[[0,0.5],[1,0.5]];portConstraint=eastwest;fontSize=12;whiteSpace=wrap;html=1;align=center;" vertex="1" parent="zcgG9CMCVVHrSvOoqnRu-1">
          <mxGeometry y="26" width="220" height="30" as="geometry" />
        </mxCell>
        <mxCell id="zcgG9CMCVVHrSvOoqnRu-3" value="MQTT" style="text;html=1;align=center;verticalAlign=middle;whiteSpace=wrap;rounded=0;" vertex="1" parent="zcgG9CMCVVHrSvOoqnRu-1">
          <mxGeometry y="56" width="220" height="94" as="geometry" />
        </mxCell>
        <mxCell id="zcgG9CMCVVHrSvOoqnRu-4" value="" style="endArrow=classic;startArrow=classic;html=1;rounded=0;align=center;exitX=0.409;exitY=0.167;exitDx=0;exitDy=0;exitPerimeter=0;" edge="1" parent="zcgG9CMCVVHrSvOoqnRu-1" source="zcgG9CMCVVHrSvOoqnRu-5">
          <mxGeometry width="50" height="50" relative="1" as="geometry">
            <mxPoint x="91.08999999999997" y="145" as="sourcePoint" />
            <mxPoint x="89.99999999999994" y="46" as="targetPoint" />
          </mxGeometry>
        </mxCell>
        <mxCell id="zcgG9CMCVVHrSvOoqnRu-5" value="&lt;font style=&quot;font-size: 14px;&quot;&gt;Microcontroller SAMD21G ---2&lt;/font&gt;" style="text;strokeColor=none;fillColor=none;spacingLeft=4;spacingRight=4;overflow=hidden;rotatable=0;points=[[0,0.5],[1,0.5]];portConstraint=eastwest;fontSize=12;whiteSpace=wrap;html=1;align=center;" vertex="1" parent="zcgG9CMCVVHrSvOoqnRu-1">
          <mxGeometry y="150" width="220" height="30" as="geometry" />
        </mxCell>
        <mxCell id="zcgG9CMCVVHrSvOoqnRu-6" value="Physical User Interface" style="swimlane;fontStyle=0;childLayout=stackLayout;horizontal=1;startSize=26;horizontalStack=0;resizeParent=1;resizeParentMax=0;resizeLast=0;collapsible=1;marginBottom=0;align=center;fontSize=16;fillColor=#f8cecc;strokeColor=#b85450;" vertex="1" parent="1">
          <mxGeometry x="38.91" y="365" width="200" height="56" as="geometry" />
        </mxCell>
        <mxCell id="zcgG9CMCVVHrSvOoqnRu-7" value="&lt;font style=&quot;font-size: 14px;&quot;&gt;On/Off Button&lt;/font&gt;" style="text;strokeColor=none;fillColor=none;spacingLeft=4;spacingRight=4;overflow=hidden;rotatable=0;points=[[0,0.5],[1,0.5]];portConstraint=eastwest;fontSize=12;whiteSpace=wrap;html=1;align=center;" vertex="1" parent="zcgG9CMCVVHrSvOoqnRu-6">
          <mxGeometry y="26" width="200" height="30" as="geometry" />
        </mxCell>
        <mxCell id="zcgG9CMCVVHrSvOoqnRu-8" value="Sensors" style="swimlane;fontStyle=0;childLayout=stackLayout;horizontal=1;startSize=26;horizontalStack=0;resizeParent=1;resizeParentMax=0;resizeLast=0;collapsible=1;marginBottom=0;align=center;fontSize=16;fillColor=#f8cecc;strokeColor=#b85450;" vertex="1" parent="1">
          <mxGeometry x="598.91" y="334.5" width="160" height="86" as="geometry" />
        </mxCell>
        <mxCell id="zcgG9CMCVVHrSvOoqnRu-9" value="&lt;font style=&quot;font-size: 14px;&quot;&gt;IMU&lt;/font&gt;" style="text;strokeColor=none;fillColor=none;spacingLeft=4;spacingRight=4;overflow=hidden;rotatable=0;points=[[0,0.5],[1,0.5]];portConstraint=eastwest;fontSize=12;whiteSpace=wrap;html=1;align=center;" vertex="1" parent="zcgG9CMCVVHrSvOoqnRu-8">
          <mxGeometry y="26" width="160" height="30" as="geometry" />
        </mxCell>
        <mxCell id="zcgG9CMCVVHrSvOoqnRu-10" value="&lt;font style=&quot;font-size: 14px;&quot;&gt;Force Sensor&lt;/font&gt;" style="text;strokeColor=none;fillColor=none;spacingLeft=4;spacingRight=4;overflow=hidden;rotatable=0;points=[[0,0.5],[1,0.5]];portConstraint=eastwest;fontSize=12;whiteSpace=wrap;html=1;align=center;" vertex="1" parent="zcgG9CMCVVHrSvOoqnRu-8">
          <mxGeometry y="56" width="160" height="30" as="geometry" />
        </mxCell>
        <mxCell id="zcgG9CMCVVHrSvOoqnRu-11" value="Power" style="swimlane;fontStyle=0;childLayout=stackLayout;horizontal=1;startSize=26;horizontalStack=0;resizeParent=1;resizeParentMax=0;resizeLast=0;collapsible=1;marginBottom=0;align=center;fontSize=16;fillColor=#f8cecc;strokeColor=#b85450;" vertex="1" parent="1">
          <mxGeometry x="38.91" y="200" width="160" height="150" as="geometry" />
        </mxCell>
        <mxCell id="zcgG9CMCVVHrSvOoqnRu-12" value="&lt;font style=&quot;font-size: 14px;&quot;&gt;LiPo Battery 3.7V-4.2V&lt;/font&gt;" style="text;strokeColor=none;fillColor=none;spacingLeft=4;spacingRight=4;overflow=hidden;rotatable=0;points=[[0,0.5],[1,0.5]];portConstraint=eastwest;fontSize=12;whiteSpace=wrap;html=1;align=center;" vertex="1" parent="zcgG9CMCVVHrSvOoqnRu-11">
          <mxGeometry y="26" width="160" height="34" as="geometry" />
        </mxCell>
        <mxCell id="zcgG9CMCVVHrSvOoqnRu-13" value="" style="endArrow=classic;html=1;rounded=0;entryX=0.5;entryY=1;entryDx=0;entryDy=0;exitX=0.5;exitY=0;exitDx=0;exitDy=0;" edge="1" parent="zcgG9CMCVVHrSvOoqnRu-11" source="zcgG9CMCVVHrSvOoqnRu-50" target="zcgG9CMCVVHrSvOoqnRu-50">
          <mxGeometry width="50" height="50" relative="1" as="geometry">
            <mxPoint x="70.09" y="50" as="sourcePoint" />
            <mxPoint x="70.09" y="80" as="targetPoint" />
            <Array as="points" />
          </mxGeometry>
        </mxCell>
        <mxCell id="zcgG9CMCVVHrSvOoqnRu-50" value="&amp;nbsp; &amp;nbsp; &amp;nbsp; &amp;nbsp; &amp;nbsp; &amp;nbsp; &amp;nbsp; &amp;nbsp; &amp;nbsp; &amp;nbsp; &amp;nbsp; Converters" style="text;html=1;align=center;verticalAlign=middle;whiteSpace=wrap;rounded=0;" vertex="1" parent="zcgG9CMCVVHrSvOoqnRu-11">
          <mxGeometry y="60" width="160" height="30" as="geometry" />
        </mxCell>
        <mxCell id="zcgG9CMCVVHrSvOoqnRu-14" value="&lt;font style=&quot;font-size: 14px;&quot;&gt;Buck Circuit 3.3V&lt;/font&gt;" style="text;html=1;align=center;verticalAlign=middle;whiteSpace=wrap;rounded=0;" vertex="1" parent="zcgG9CMCVVHrSvOoqnRu-11">
          <mxGeometry y="90" width="160" height="30" as="geometry" />
        </mxCell>
        <mxCell id="zcgG9CMCVVHrSvOoqnRu-49" value="&lt;font style=&quot;font-size: 14px;&quot;&gt;Boost Circuit 5V&lt;/font&gt;" style="text;html=1;align=center;verticalAlign=middle;whiteSpace=wrap;rounded=0;" vertex="1" parent="zcgG9CMCVVHrSvOoqnRu-11">
          <mxGeometry y="120" width="160" height="30" as="geometry" />
        </mxCell>
        <mxCell id="zcgG9CMCVVHrSvOoqnRu-15" value="Actuator" style="swimlane;fontStyle=0;childLayout=stackLayout;horizontal=1;startSize=26;horizontalStack=0;resizeParent=1;resizeParentMax=0;resizeLast=0;collapsible=1;marginBottom=0;align=center;fontSize=16;fillColor=#f8cecc;strokeColor=#b85450;" vertex="1" parent="1">
          <mxGeometry x="597.91" y="450" width="180" height="266" as="geometry">
            <mxRectangle x="180" y="520" width="90" height="30" as="alternateBounds" />
          </mxGeometry>
        </mxCell>
        <mxCell id="zcgG9CMCVVHrSvOoqnRu-16" value="&lt;font style=&quot;font-size: 14px;&quot;&gt;Light Strip&lt;/font&gt;" style="text;strokeColor=none;fillColor=none;spacingLeft=4;spacingRight=4;overflow=hidden;rotatable=0;points=[[0,0.5],[1,0.5]];portConstraint=eastwest;fontSize=12;whiteSpace=wrap;html=1;align=center;" vertex="1" parent="zcgG9CMCVVHrSvOoqnRu-15">
          <mxGeometry y="26" width="180" height="30" as="geometry" />
        </mxCell>
        <mxCell id="zcgG9CMCVVHrSvOoqnRu-56" value="&lt;font style=&quot;font-size: 14px;&quot;&gt;Haptic Motor Driver&lt;/font&gt;" style="text;html=1;align=center;verticalAlign=middle;whiteSpace=wrap;rounded=0;" vertex="1" parent="zcgG9CMCVVHrSvOoqnRu-15">
          <mxGeometry y="56" width="180" height="30" as="geometry" />
        </mxCell>
        <mxCell id="zcgG9CMCVVHrSvOoqnRu-17" value="&lt;font style=&quot;font-size: 14px;&quot;&gt;Vibration Motor - feedback&lt;/font&gt;" style="text;strokeColor=none;fillColor=none;spacingLeft=4;spacingRight=4;overflow=hidden;rotatable=0;points=[[0,0.5],[1,0.5]];portConstraint=eastwest;fontSize=12;whiteSpace=wrap;html=1;align=center;" vertex="1" parent="zcgG9CMCVVHrSvOoqnRu-15">
          <mxGeometry y="86" width="180" height="30" as="geometry" />
        </mxCell>
        <mxCell id="zcgG9CMCVVHrSvOoqnRu-71" value="....................................................." style="text;html=1;align=center;verticalAlign=middle;whiteSpace=wrap;rounded=0;" vertex="1" parent="zcgG9CMCVVHrSvOoqnRu-15">
          <mxGeometry y="116" width="180" height="30" as="geometry" />
        </mxCell>
        <mxCell id="zcgG9CMCVVHrSvOoqnRu-58" value="&lt;font style=&quot;font-size: 14px;&quot;&gt;Motor Driver&lt;/font&gt;" style="text;html=1;align=center;verticalAlign=middle;whiteSpace=wrap;rounded=0;" vertex="1" parent="zcgG9CMCVVHrSvOoqnRu-15">
          <mxGeometry y="146" width="180" height="30" as="geometry" />
        </mxCell>
        <mxCell id="zcgG9CMCVVHrSvOoqnRu-18" value="&lt;font style=&quot;font-size: 14px;&quot;&gt;Motors - Fans/Door&lt;/font&gt;" style="text;strokeColor=none;fillColor=none;spacingLeft=4;spacingRight=4;overflow=hidden;rotatable=0;points=[[0,0.5],[1,0.5]];portConstraint=eastwest;fontSize=12;whiteSpace=wrap;html=1;align=center;" vertex="1" parent="zcgG9CMCVVHrSvOoqnRu-15">
          <mxGeometry y="176" width="180" height="30" as="geometry" />
        </mxCell>
        <mxCell id="zcgG9CMCVVHrSvOoqnRu-19" value="&lt;font style=&quot;font-size: 14px;&quot;&gt;Status LED&lt;/font&gt;" style="text;strokeColor=none;fillColor=none;spacingLeft=4;spacingRight=4;overflow=hidden;rotatable=0;points=[[0,0.5],[1,0.5]];portConstraint=eastwest;fontSize=12;whiteSpace=wrap;html=1;align=center;" vertex="1" parent="zcgG9CMCVVHrSvOoqnRu-15">
          <mxGeometry y="206" width="180" height="30" as="geometry" />
        </mxCell>
        <mxCell id="zcgG9CMCVVHrSvOoqnRu-53" value="&lt;font style=&quot;font-size: 14px;&quot;&gt;LCD&lt;/font&gt;" style="text;html=1;align=center;verticalAlign=middle;whiteSpace=wrap;rounded=0;" vertex="1" parent="zcgG9CMCVVHrSvOoqnRu-15">
          <mxGeometry y="236" width="180" height="30" as="geometry" />
        </mxCell>
        <mxCell id="zcgG9CMCVVHrSvOoqnRu-63" value="" style="endArrow=classic;html=1;rounded=0;exitX=0.5;exitY=1;exitDx=0;exitDy=0;entryX=0.5;entryY=0.133;entryDx=0;entryDy=0;entryPerimeter=0;" edge="1" parent="zcgG9CMCVVHrSvOoqnRu-15" source="zcgG9CMCVVHrSvOoqnRu-58" target="zcgG9CMCVVHrSvOoqnRu-18">
          <mxGeometry width="50" height="50" relative="1" as="geometry">
            <mxPoint x="-207.90999999999997" y="90" as="sourcePoint" />
            <mxPoint x="-157.90999999999997" y="40" as="targetPoint" />
          </mxGeometry>
        </mxCell>
        <mxCell id="zcgG9CMCVVHrSvOoqnRu-67" value="" style="endArrow=classic;html=1;rounded=0;entryX=0.5;entryY=0.046;entryDx=0;entryDy=0;entryPerimeter=0;exitX=0.5;exitY=0.8;exitDx=0;exitDy=0;exitPerimeter=0;" edge="1" parent="zcgG9CMCVVHrSvOoqnRu-15" source="zcgG9CMCVVHrSvOoqnRu-56" target="zcgG9CMCVVHrSvOoqnRu-17">
          <mxGeometry width="50" height="50" relative="1" as="geometry">
            <mxPoint x="-207.90999999999997" y="90" as="sourcePoint" />
            <mxPoint x="-157.90999999999997" y="40" as="targetPoint" />
          </mxGeometry>
        </mxCell>
        <mxCell id="zcgG9CMCVVHrSvOoqnRu-21" value="" style="endArrow=classic;html=1;rounded=0;exitX=0.68;exitY=1;exitDx=0;exitDy=0;exitPerimeter=0;entryX=-0.002;entryY=0.444;entryDx=0;entryDy=0;entryPerimeter=0;align=center;" edge="1" parent="1" source="zcgG9CMCVVHrSvOoqnRu-5" target="zcgG9CMCVVHrSvOoqnRu-19">
          <mxGeometry width="50" height="50" relative="1" as="geometry">
            <mxPoint x="568.91" y="490" as="sourcePoint" />
            <mxPoint x="618.91" y="440" as="targetPoint" />
            <Array as="points">
              <mxPoint x="450" y="670" />
            </Array>
          </mxGeometry>
        </mxCell>
        <mxCell id="zcgG9CMCVVHrSvOoqnRu-22" value="" style="endArrow=classic;startArrow=classic;html=1;rounded=0;exitX=1;exitY=0.5;exitDx=0;exitDy=0;align=center;entryX=0;entryY=0.5;entryDx=0;entryDy=0;" edge="1" parent="1" source="zcgG9CMCVVHrSvOoqnRu-2" target="zcgG9CMCVVHrSvOoqnRu-10">
          <mxGeometry width="50" height="50" relative="1" as="geometry">
            <mxPoint x="568.91" y="490" as="sourcePoint" />
            <mxPoint x="588.91" y="420" as="targetPoint" />
            <Array as="points">
              <mxPoint x="558.91" y="406" />
            </Array>
          </mxGeometry>
        </mxCell>
        <mxCell id="zcgG9CMCVVHrSvOoqnRu-23" value="" style="endArrow=classic;startArrow=classic;html=1;rounded=0;entryX=0.002;entryY=0.665;entryDx=0;entryDy=0;align=center;entryPerimeter=0;" edge="1" parent="1" target="zcgG9CMCVVHrSvOoqnRu-9">
          <mxGeometry width="50" height="50" relative="1" as="geometry">
            <mxPoint x="518.91" y="398" as="sourcePoint" />
            <mxPoint x="588.91" y="350" as="targetPoint" />
            <Array as="points">
              <mxPoint x="560" y="398" />
              <mxPoint x="560" y="380" />
            </Array>
          </mxGeometry>
        </mxCell>
        <mxCell id="zcgG9CMCVVHrSvOoqnRu-25" value="1 SPI" style="text;html=1;align=center;verticalAlign=middle;whiteSpace=wrap;rounded=0;" vertex="1" parent="1">
          <mxGeometry x="550" y="355" width="60" height="25" as="geometry" />
        </mxCell>
        <mxCell id="zcgG9CMCVVHrSvOoqnRu-26" value="1 INT" style="text;html=1;align=center;verticalAlign=middle;whiteSpace=wrap;rounded=0;" vertex="1" parent="1">
          <mxGeometry x="550" y="385" width="60" height="20" as="geometry" />
        </mxCell>
        <mxCell id="zcgG9CMCVVHrSvOoqnRu-27" value="&lt;font&gt;1 GPIO&lt;/font&gt;" style="text;html=1;align=center;verticalAlign=middle;whiteSpace=wrap;rounded=0;" vertex="1" parent="1">
          <mxGeometry x="540" y="650" width="60" height="20" as="geometry" />
        </mxCell>
        <mxCell id="zcgG9CMCVVHrSvOoqnRu-30" style="edgeStyle=orthogonalEdgeStyle;rounded=0;orthogonalLoop=1;jettySize=auto;html=1;exitX=1;exitY=0.5;exitDx=0;exitDy=0;entryX=0;entryY=0.5;entryDx=0;entryDy=0;align=center;" edge="1" parent="1" source="zcgG9CMCVVHrSvOoqnRu-7" target="zcgG9CMCVVHrSvOoqnRu-2">
          <mxGeometry relative="1" as="geometry" />
        </mxCell>
        <mxCell id="zcgG9CMCVVHrSvOoqnRu-31" value="1 GPIO" style="text;html=1;align=center;verticalAlign=middle;whiteSpace=wrap;rounded=0;" vertex="1" parent="1">
          <mxGeometry x="238.91" y="380" width="60" height="30" as="geometry" />
        </mxCell>
        <mxCell id="zcgG9CMCVVHrSvOoqnRu-32" value="1 GPIO" style="text;html=1;align=center;verticalAlign=middle;whiteSpace=wrap;rounded=0;" vertex="1" parent="1">
          <mxGeometry x="540" y="470" width="60" height="30" as="geometry" />
        </mxCell>
        <mxCell id="zcgG9CMCVVHrSvOoqnRu-33" style="edgeStyle=orthogonalEdgeStyle;rounded=0;orthogonalLoop=1;jettySize=auto;html=1;exitX=0;exitY=0.75;exitDx=0;exitDy=0;entryX=0;entryY=0.5;entryDx=0;entryDy=0;" edge="1" parent="1" source="zcgG9CMCVVHrSvOoqnRu-34" target="zcgG9CMCVVHrSvOoqnRu-7">
          <mxGeometry relative="1" as="geometry">
            <mxPoint x="9.91" y="410" as="targetPoint" />
            <Array as="points">
              <mxPoint x="10" y="495" />
              <mxPoint x="10" y="406" />
            </Array>
          </mxGeometry>
        </mxCell>
        <mxCell id="zcgG9CMCVVHrSvOoqnRu-34" value="" style="shape=actor;whiteSpace=wrap;html=1;align=center;fillColor=#dae8fc;strokeColor=#6c8ebf;" vertex="1" parent="1">
          <mxGeometry x="98.91" y="450" width="40" height="60" as="geometry" />
        </mxCell>
        <mxCell id="zcgG9CMCVVHrSvOoqnRu-35" value="User" style="text;html=1;align=center;verticalAlign=middle;whiteSpace=wrap;rounded=0;" vertex="1" parent="1">
          <mxGeometry x="88.91" y="510" width="60" height="30" as="geometry" />
        </mxCell>
        <mxCell id="zcgG9CMCVVHrSvOoqnRu-36" value="&lt;font style=&quot;font-size: 14px;&quot;&gt;Button pressed, power on&lt;/font&gt;" style="text;html=1;align=center;verticalAlign=middle;whiteSpace=wrap;rounded=0;" vertex="1" parent="1">
          <mxGeometry x="38.91" y="530" width="171" height="30" as="geometry" />
        </mxCell>
        <mxCell id="zcgG9CMCVVHrSvOoqnRu-37" value="" style="shape=actor;whiteSpace=wrap;html=1;align=center;fillColor=#dae8fc;strokeColor=#6c8ebf;" vertex="1" parent="1">
          <mxGeometry x="588.91" y="246" width="40" height="60" as="geometry" />
        </mxCell>
        <mxCell id="zcgG9CMCVVHrSvOoqnRu-38" value="Same User" style="text;html=1;align=center;verticalAlign=middle;whiteSpace=wrap;rounded=0;" vertex="1" parent="1">
          <mxGeometry x="578.91" y="306" width="60" height="30" as="geometry" />
        </mxCell>
        <mxCell id="zcgG9CMCVVHrSvOoqnRu-39" value="&lt;font style=&quot;font-size: 14px;&quot;&gt;Hold the Stress Sensor and do gesture&lt;/font&gt;&lt;div&gt;&lt;br&gt;&lt;/div&gt;" style="text;html=1;align=center;verticalAlign=middle;whiteSpace=wrap;rounded=0;" vertex="1" parent="1">
          <mxGeometry x="529.91" y="210" width="159" height="30" as="geometry" />
        </mxCell>
        <mxCell id="zcgG9CMCVVHrSvOoqnRu-40" style="edgeStyle=orthogonalEdgeStyle;rounded=0;orthogonalLoop=1;jettySize=auto;html=1;exitX=1;exitY=0.75;exitDx=0;exitDy=0;entryX=0.994;entryY=-0.1;entryDx=0;entryDy=0;entryPerimeter=0;" edge="1" parent="1" source="zcgG9CMCVVHrSvOoqnRu-37" target="zcgG9CMCVVHrSvOoqnRu-10">
          <mxGeometry relative="1" as="geometry">
            <Array as="points">
              <mxPoint x="780" y="291" />
              <mxPoint x="780" y="403" />
            </Array>
          </mxGeometry>
        </mxCell>
        <mxCell id="zcgG9CMCVVHrSvOoqnRu-41" value="&lt;font style=&quot;font-size: 14px;&quot;&gt;Wi-Fi Communication:&lt;/font&gt;&lt;div&gt;&lt;font style=&quot;font-size: 14px;&quot;&gt;SAMD2 ---1 send signal data to SAMD2 ---2;&lt;/font&gt;&lt;/div&gt;&lt;div&gt;&lt;font style=&quot;font-size: 14px;&quot;&gt;SAMD2 ---2 send actuation success feedback to SAMD2 ---1&lt;/font&gt;&lt;/div&gt;" style="text;html=1;align=center;verticalAlign=middle;whiteSpace=wrap;rounded=0;" vertex="1" parent="1">
          <mxGeometry x="138.91" y="630" width="210" height="110" as="geometry" />
        </mxCell>
        <mxCell id="zcgG9CMCVVHrSvOoqnRu-42" value="" style="verticalLabelPosition=bottom;verticalAlign=top;html=1;shape=mxgraph.basic.tick;fillColor=#f8cecc;strokeColor=#b85450;" vertex="1" parent="1">
          <mxGeometry x="588.91" y="775" width="34" height="40" as="geometry" />
        </mxCell>
        <mxCell id="zcgG9CMCVVHrSvOoqnRu-43" value="&lt;font style=&quot;font-size: 14px;&quot;&gt;Actuator working&lt;/font&gt;" style="text;html=1;align=center;verticalAlign=middle;whiteSpace=wrap;rounded=0;" vertex="1" parent="1">
          <mxGeometry x="597.91" y="780" width="129" height="30" as="geometry" />
        </mxCell>
        <mxCell id="zcgG9CMCVVHrSvOoqnRu-44" style="edgeStyle=orthogonalEdgeStyle;rounded=0;orthogonalLoop=1;jettySize=auto;html=1;exitX=1;exitY=0.5;exitDx=0;exitDy=0;entryX=1;entryY=0.5;entryDx=0;entryDy=0;" edge="1" parent="1" source="zcgG9CMCVVHrSvOoqnRu-18" target="zcgG9CMCVVHrSvOoqnRu-43">
          <mxGeometry relative="1" as="geometry" />
        </mxCell>
        <mxCell id="zcgG9CMCVVHrSvOoqnRu-45" value="&lt;font style=&quot;font-size: 14px;&quot;&gt;Gesture detected, Light Strip turns on&lt;/font&gt;" style="text;html=1;align=center;verticalAlign=middle;whiteSpace=wrap;rounded=0;" vertex="1" parent="1">
          <mxGeometry x="688.91" y="250" width="130" height="30" as="geometry" />
        </mxCell>
        <mxCell id="zcgG9CMCVVHrSvOoqnRu-46" value="" style="endArrow=none;dashed=1;html=1;dashPattern=1 3;strokeWidth=2;rounded=0;exitX=0.5;exitY=0;exitDx=0;exitDy=0;entryX=0;entryY=0.5;entryDx=0;entryDy=0;" edge="1" parent="1" source="zcgG9CMCVVHrSvOoqnRu-41" target="zcgG9CMCVVHrSvOoqnRu-3">
          <mxGeometry width="50" height="50" relative="1" as="geometry">
            <mxPoint x="509.91" y="570" as="sourcePoint" />
            <mxPoint x="359.91" y="480" as="targetPoint" />
          </mxGeometry>
        </mxCell>
        <mxCell id="zcgG9CMCVVHrSvOoqnRu-47" value="" style="endArrow=classic;html=1;rounded=0;entryX=-0.003;entryY=0.625;entryDx=0;entryDy=0;entryPerimeter=0;exitX=1.004;exitY=0.763;exitDx=0;exitDy=0;exitPerimeter=0;" edge="1" parent="1" target="zcgG9CMCVVHrSvOoqnRu-16" source="zcgG9CMCVVHrSvOoqnRu-2">
          <mxGeometry width="50" height="50" relative="1" as="geometry">
            <mxPoint x="519.91" y="410" as="sourcePoint" />
            <mxPoint x="569.91" y="520" as="targetPoint" />
            <Array as="points">
              <mxPoint x="550" y="414" />
              <mxPoint x="550" y="495" />
            </Array>
          </mxGeometry>
        </mxCell>
        <mxCell id="zcgG9CMCVVHrSvOoqnRu-48" value="" style="endArrow=classic;html=1;rounded=0;entryX=1;entryY=0.5;entryDx=0;entryDy=0;" edge="1" parent="1" target="zcgG9CMCVVHrSvOoqnRu-16">
          <mxGeometry width="50" height="50" relative="1" as="geometry">
            <mxPoint x="800" y="290" as="sourcePoint" />
            <mxPoint x="867.91" y="386" as="targetPoint" />
            <Array as="points">
              <mxPoint x="799.91" y="490" />
            </Array>
          </mxGeometry>
        </mxCell>
        <mxCell id="zcgG9CMCVVHrSvOoqnRu-51" style="edgeStyle=orthogonalEdgeStyle;rounded=0;orthogonalLoop=1;jettySize=auto;html=1;exitX=0;exitY=0.5;exitDx=0;exitDy=0;entryX=0.419;entryY=0.984;entryDx=0;entryDy=0;entryPerimeter=0;" edge="1" parent="1" source="zcgG9CMCVVHrSvOoqnRu-43" target="zcgG9CMCVVHrSvOoqnRu-5">
          <mxGeometry relative="1" as="geometry" />
        </mxCell>
        <mxCell id="zcgG9CMCVVHrSvOoqnRu-52" value="MQTT" style="text;html=1;align=center;verticalAlign=middle;whiteSpace=wrap;rounded=0;" vertex="1" parent="1">
          <mxGeometry x="458.91" y="770" width="60" height="30" as="geometry" />
        </mxCell>
        <mxCell id="zcgG9CMCVVHrSvOoqnRu-54" value="" style="endArrow=classic;html=1;rounded=0;exitX=0.544;exitY=1.014;exitDx=0;exitDy=0;exitPerimeter=0;entryX=0;entryY=0.5;entryDx=0;entryDy=0;" edge="1" parent="1" source="zcgG9CMCVVHrSvOoqnRu-5" target="zcgG9CMCVVHrSvOoqnRu-53">
          <mxGeometry width="50" height="50" relative="1" as="geometry">
            <mxPoint x="390" y="540" as="sourcePoint" />
            <mxPoint x="440" y="490" as="targetPoint" />
            <Array as="points">
              <mxPoint x="419" y="700" />
            </Array>
          </mxGeometry>
        </mxCell>
        <mxCell id="zcgG9CMCVVHrSvOoqnRu-55" value="SERCOM0 SPI+3 GPIO" style="text;html=1;align=center;verticalAlign=middle;whiteSpace=wrap;rounded=0;" vertex="1" parent="1">
          <mxGeometry x="430" y="670" width="140" height="30" as="geometry" />
        </mxCell>
        <mxCell id="zcgG9CMCVVHrSvOoqnRu-59" value="" style="endArrow=classic;html=1;rounded=0;exitX=1.002;exitY=0.932;exitDx=0;exitDy=0;exitPerimeter=0;entryX=0;entryY=0.5;entryDx=0;entryDy=0;" edge="1" parent="1" source="zcgG9CMCVVHrSvOoqnRu-2" target="zcgG9CMCVVHrSvOoqnRu-56">
          <mxGeometry width="50" height="50" relative="1" as="geometry">
            <mxPoint x="390" y="610" as="sourcePoint" />
            <mxPoint x="440" y="560" as="targetPoint" />
            <Array as="points">
              <mxPoint x="540" y="419" />
              <mxPoint x="540" y="521" />
            </Array>
          </mxGeometry>
        </mxCell>
        <mxCell id="zcgG9CMCVVHrSvOoqnRu-60" value="1 I2C" style="text;html=1;align=center;verticalAlign=middle;whiteSpace=wrap;rounded=0;" vertex="1" parent="1">
          <mxGeometry x="540" y="500" width="60" height="30" as="geometry" />
        </mxCell>
        <mxCell id="zcgG9CMCVVHrSvOoqnRu-61" value="" style="endArrow=classic;html=1;rounded=0;exitX=0.775;exitY=1.009;exitDx=0;exitDy=0;exitPerimeter=0;entryX=0.999;entryY=0.835;entryDx=0;entryDy=0;entryPerimeter=0;" edge="1" parent="1" source="zcgG9CMCVVHrSvOoqnRu-5" target="zcgG9CMCVVHrSvOoqnRu-62">
          <mxGeometry width="50" height="50" relative="1" as="geometry">
            <mxPoint x="390" y="540" as="sourcePoint" />
            <mxPoint x="440" y="490" as="targetPoint" />
            <Array as="points">
              <mxPoint x="470" y="610" />
            </Array>
          </mxGeometry>
        </mxCell>
        <mxCell id="zcgG9CMCVVHrSvOoqnRu-62" value="1GPIO" style="text;html=1;align=center;verticalAlign=middle;whiteSpace=wrap;rounded=0;" vertex="1" parent="1">
          <mxGeometry x="537.91" y="585" width="60" height="30" as="geometry" />
        </mxCell>
      </root>
    </mxGraphModel>
  </diagram>
</mxfile>
